<svg xmlns="http://www.w3.org/2000/svg" version="1.1" xmlns:xlink="http://www.w3.org/1999/xlink" width="1008" height="855"><svg xmlns="http://www.w3.org/2000/svg" version="1.1" width="1008" height="855">
  <path d="M0 0 C4.65328258 2.55583282 8.0410548 6.03233993 10 11 C10.75569145 16.94738983 10.3894961 21.91575586 7 27 C6.3090625 27.51304687 5.618125 28.02609375 4.90625 28.5546875 C1.94540918 32.35281527 2.57080398 36.08401133 2.75 40.75 C2.76804687 41.63816406 2.78609375 42.52632812 2.8046875 43.44140625 C2.85172626 45.62870848 2.91742991 47.81379816 3 50 C3.97839844 50.23074219 4.95679688 50.46148437 5.96484375 50.69921875 C12.98830502 52.42572627 19.12675379 54.07172353 25.16796875 58.2421875 C27.00023845 59.23064603 27.00023845 59.23064603 28.94921875 58.37890625 C33.86854151 55.07124732 39.11641857 51.11904246 40.78125 45.2421875 C41.00928527 43.38162701 41.22555812 41.51958482 41.4296875 39.65625 C42.43832856 34.95846971 45.37562986 31.9973694 49 29 C53.871923 26.35221576 58.72802692 26.69383791 64 28 C69.28294713 30.79099094 73.0860914 34.2582742 75 40 C75.51578753 44.91266479 75.57444169 48.8290227 73.375 53.3125 C68.61376042 58.70021847 66.46068965 61.0126534 59.25 61.6875 C52.51286889 62.53912734 49.26817613 65.71367751 44.66796875 70.4921875 C42.77251365 72.79698736 42.77251365 72.79698736 43.125 75.14453125 C44.05264663 77.21698918 44.05264663 77.21698918 45.8125 79.8125 C49.17084782 85.42204801 52 94.36960019 52 101 C55.02465079 100.99395674 58.03925233 100.9462925 61.0625 100.875 C61.91005859 100.87757813 62.75761719 100.88015625 63.63085938 100.8828125 C70.35033876 100.67526101 73.3407919 98.66664168 78 94 C81.98553462 92.00723269 86.66772536 92.48036059 91 93 C96.25787074 95.06375708 99.56196012 97.86192192 102 103 C102.79015535 109.08633174 102.8827607 114.95199518 100.4375 120.625 C95.6184374 125.32049689 92.12086743 127.22758013 85.4375 127.5 C80.58359549 127.31331137 77.65536786 126.37418572 74 123 C73.34 121.68 72.68 120.36 72 119 C65.07 119 58.14 119 51 119 C50.67 121.97 50.34 124.94 50 128 C48.9140625 131.328125 48.9140625 131.328125 47.625 134.25 C46.99464844 135.71179688 46.99464844 135.71179688 46.3515625 137.203125 C45.04304087 139.91093276 43.59144678 142.44996247 42 145 C43.64087612 147.02696462 45.30733318 149.01703413 47 151 C47.45761719 151.57234375 47.91523438 152.1446875 48.38671875 152.734375 C51.13878523 155.95129347 51.13878523 155.95129347 55.01074219 157.31567383 C57.0094495 157.27172831 59.00558981 157.13816697 61 157 C67.37364611 158.86418734 71.01431238 162.59596409 74.3125 168.25 C75.65928814 173.63715255 74.8522884 178.35855567 72.3125 183.25 C66.04771339 190.70001651 66.04771339 190.70001651 60.93359375 191.44921875 C55.88896566 191.6156513 52.06303127 191.48489146 47.4375 189.375 C42.98864381 185.04021704 41.02035133 181.91778494 40.4375 175.75 C39.36791455 168.17982722 33.73557938 164.42157541 28 160 C25.31117066 161.0725386 22.62676339 162.15340455 19.94921875 163.25390625 C18.87285156 163.68574219 17.79648437 164.11757813 16.6875 164.5625 C15.08455078 165.21412109 15.08455078 165.21412109 13.44921875 165.87890625 C9.56139796 167.14255808 6.06080644 167.60587593 2 168 C2.00604326 171.02465079 2.0537075 174.03925233 2.125 177.0625 C2.12242187 177.91005859 2.11984375 178.75761719 2.1171875 179.63085938 C2.29665169 185.44101237 3.43930336 188.43850354 7.62060547 192.52514648 C10.72600134 195.84544674 10.3332899 200.22322727 10.27734375 204.5 C9.86326021 208.23258406 8.46309966 210.21280828 6 213 C5.21625 213.94875 4.4325 214.8975 3.625 215.875 C-0.52678191 219.11593179 -5.52181688 218.79577364 -10.5703125 218.625 C-15.80187895 217.67163937 -18.8368364 215.18353895 -22 211 C-24.73845298 206.53532748 -24.53098859 202.09266327 -24 197 C-22.81847678 193.90553442 -21.92645612 191.80570777 -19.42651367 189.6315918 C-17.5479866 187.48300435 -17.5782892 186.15828074 -17.48828125 183.33203125 C-17.43510742 181.99301758 -17.43510742 181.99301758 -17.38085938 180.62695312 C-17.35830078 179.69818359 -17.33574219 178.76941406 -17.3125 177.8125 C-17.27833984 176.87212891 -17.24417969 175.93175781 -17.20898438 174.96289062 C-17.12651782 172.64204607 -17.05736597 170.32157852 -17 168 C-17.64469238 167.89776123 -18.28938477 167.79552246 -18.95361328 167.69018555 C-27.54091373 166.27783664 -35.28521342 162.94880071 -43 159 C-52.33007912 167.02043861 -52.33007912 167.02043861 -55.69921875 178.5546875 C-56.29460958 183.39513765 -59.07846508 186.10209418 -62.4375 189.375 C-67.93443698 191.88237476 -73.0746455 192.08980333 -79 191 C-83.57868368 188.42668161 -87.10527617 184.94985268 -89 180 C-89.66071926 174.48376242 -89.73198334 169.5765795 -87.375 164.5 C-83.10331193 160.00348624 -79.96431657 158.02463919 -73.8125 157.4375 C-66.07953924 156.34341352 -61.86317084 150.62509896 -57 145 C-57.39832031 144.17757812 -57.79664063 143.35515625 -58.20703125 142.5078125 C-66 126.08759124 -66 126.08759124 -66 119 C-72.6 119 -79.2 119 -86 119 C-86.66 120.32 -87.32 121.64 -88 123 C-92.46401286 127.12062725 -96.38762666 127.67645975 -102.2421875 127.453125 C-107.62147901 126.5692754 -111.43341277 124.07672302 -114.69140625 119.7578125 C-117.19770074 114.47589039 -116.58999042 108.70547556 -116 103 C-114.08115745 98.54828528 -111.48778821 95.93312197 -107.125 93.6953125 C-102.78744013 92.27603739 -98.47999548 92.31752708 -94 93 C-90.90831615 94.60105057 -88.8737819 95.98257423 -86.62182617 98.60473633 C-84.52803364 100.40603458 -83.28639555 100.41991961 -80.55078125 100.51171875 C-79.27944336 100.56489258 -79.27944336 100.56489258 -77.98242188 100.61914062 C-77.10134766 100.64169922 -76.22027344 100.66425781 -75.3125 100.6875 C-74.41982422 100.72166016 -73.52714844 100.75582031 -72.60742188 100.79101562 C-70.40507329 100.87345648 -68.20312062 100.94261551 -66 101 C-65.93413696 100.14293457 -65.93413696 100.14293457 -65.86694336 99.26855469 C-65.40561349 94.2238417 -64.50400677 89.97414111 -62.5625 85.25 C-62.13066406 84.18265625 -61.69882812 83.1153125 -61.25390625 82.015625 C-60.84011719 81.02046875 -60.42632812 80.0253125 -60 79 C-59.33139309 77.33411074 -58.66400341 75.6677295 -58 74 C-63.91688837 65.95613604 -63.91688837 65.95613604 -72.19140625 60.93359375 C-74.23253435 60.69090643 -76.27880003 60.48739896 -78.328125 60.328125 C-82.64461918 59.79802922 -84.17352175 58.26132106 -87 55 C-89.66593519 50.20131665 -90.58527247 46.46254307 -90 41 C-88.19696376 34.95452555 -85.12409223 31.47040792 -80 28 C-75.40937391 26.4697913 -70.62459862 26.0586235 -65.99609375 27.71875 C-62.05100206 29.83188767 -59.46851262 32.31823969 -57 36 C-56.55859375 38.9453125 -56.55859375 38.9453125 -56.4375 42.125 C-55.43441873 50.66579875 -50.28548277 54.75509047 -44 60 C-40.58562009 58.68771164 -37.36375391 57.19698288 -34.125 55.5 C-28.35934631 52.59575542 -23.53392718 50.8779742 -17 51 C-17.02294167 47.6235264 -17.1004366 44.25038095 -17.1875 40.875 C-17.19330078 39.92367187 -17.19910156 38.97234375 -17.20507812 37.9921875 C-17.40892932 31.46894913 -18.38312159 28.6096982 -23 24 C-24.84989522 18.45031434 -24.96514041 12.96740161 -22.375 7.6875 C-21.59125 6.800625 -20.8075 5.91375 -20 5 C-19.21625 4.05125 -18.4325 3.1025 -17.625 2.125 C-12.68771524 -1.72910494 -5.83156876 -1.06270046 0 0 Z " fill="#FAFBFC" transform="translate(459,163)"></path>
  <path d="M0 0 C13.53 0 27.06 0 41 0 C49.875 17.8125 49.875 17.8125 52.60498047 23.30004883 C56.63173707 31.37633793 60.71680006 39.41402263 64.9453125 47.38671875 C70.97293514 58.75636432 76.67451928 70.28547307 82.39550781 81.81152344 C83.78271565 84.60440929 85.17257494 87.39596565 86.5625 90.1875 C86.96073975 90.99227783 87.35897949 91.79705566 87.76928711 92.6262207 C92.35691022 101.83866142 97.20224454 110.88426462 102 120 C108.93 133.86 115.86 147.72 123 162 C123.33 108.54 123.66 55.08 124 0 C132.91 0 141.82 0 151 0 C151.02311557 27.36332744 151.04097746 54.72665253 151.05181217 82.08998775 C151.05697587 94.79428883 151.06401997 107.49858374 151.07543945 120.20288086 C151.08538404 131.27158425 151.09185289 142.34028318 151.09408849 153.40899092 C151.09539599 159.27370828 151.09848425 165.13841287 151.10573006 171.00312614 C151.11248673 176.51628528 151.11461769 182.02942631 151.11310768 187.54258919 C151.11338417 189.57237979 151.11539138 191.60217097 151.11920547 193.63195801 C151.12413721 196.39043917 151.12300022 199.1488508 151.12025452 201.90733337 C151.12462378 203.12861282 151.12462378 203.12861282 151.12908131 204.37456459 C151.11412121 209.88587879 151.11412121 209.88587879 150 211 C147.70848583 211.08790975 145.41427476 211.10694038 143.12109375 211.09765625 C142.09110008 211.09553383 142.09110008 211.09553383 141.04029846 211.09336853 C138.83932199 211.08775479 136.63844591 211.07520007 134.4375 211.0625 C132.94856917 211.05748676 131.45963676 211.05292355 129.97070312 211.04882812 C126.31376925 211.03778093 122.65689442 211.02050713 119 211 C112.26757437 198.29279948 105.65837991 185.52736443 99.13345337 172.71246338 C96.50435549 167.54915748 93.87100854 162.38801846 91.23828125 157.2265625 C90.70863266 156.1879306 90.17898407 155.14929871 89.63328552 154.07919312 C84.70699717 144.42061745 79.76302594 134.77117036 74.8125 125.125 C73.18877661 121.96095057 71.56507196 118.79689153 69.94140625 115.6328125 C69.33924286 114.45942322 69.33924286 114.45942322 68.72491455 113.2623291 C65.69725549 107.36155576 62.67399209 101.45854074 59.65234375 95.5546875 C59.20023026 94.67144806 58.74811676 93.78820862 58.28230286 92.87820435 C54.68451629 85.84954941 54.68451629 85.84954941 53.03579712 82.6260376 C44.73395395 66.39474474 36.3617195 50.20083153 28 34 C27.67 92.41 27.34 150.82 27 211 C18.42 211 9.84 211 1 211 C-0.79552722 209.20447278 -0.12259239 206.76508701 -0.12908131 204.37456459 C-0.12616847 203.56037829 -0.12325563 202.74619199 -0.12025452 201.90733337 C-0.12153615 200.61973274 -0.12153615 200.61973274 -0.12284368 199.30611998 C-0.12450112 196.4071029 -0.11897282 193.50814268 -0.11352539 190.60913086 C-0.11324355 188.54004416 -0.11340119 186.47095737 -0.1139679 184.40187073 C-0.11425599 178.76573737 -0.10835733 173.12962509 -0.10139394 167.49349666 C-0.09516239 161.61045738 -0.09455676 155.72741768 -0.09336853 149.84437561 C-0.09025462 138.69545772 -0.08204044 127.54654958 -0.07201904 116.397636 C-0.06085974 103.70861732 -0.05534792 91.01959818 -0.05032361 78.33057582 C-0.03985787 52.22037722 -0.02151166 26.110192 0 0 Z " fill="#E64E0C" transform="translate(664,413)"></path>
  <path d="M0 0 C0.26697888 2.62462244 0.34832984 5.01065933 0.29296875 7.6328125 C0.28872391 8.38464813 0.28447906 9.13648376 0.28010559 9.91110229 C0.2632917 12.31609685 0.22563624 14.72025809 0.1875 17.125 C0.17245659 18.75389416 0.15876758 20.38280144 0.14648438 22.01171875 C0.11337954 26.00813434 0.06158009 30.00392582 0 34 C-4.27796227 33.11733769 -7.24645743 30.86718722 -10.75 28.375 C-29.45606745 15.5367354 -51.87431486 9.18167414 -74.546875 13.08984375 C-84.99367813 15.84335634 -93.90929805 20.87233647 -100 30 C-101.54326281 32.95995431 -101.54326281 32.95995431 -102 36 C-102.2475 37.19625 -102.495 38.3925 -102.75 39.625 C-103.5633722 47.17774183 -102.07631352 55.57196714 -98 62 C-97.2265625 63.2375 -97.2265625 63.2375 -96.4375 64.5 C-85.29574998 75.92743592 -67.1608325 78.00073343 -52.28833008 81.60766602 C-13.04680382 91.16633169 -13.04680382 91.16633169 -1 107 C7.86538316 121.98004467 11.01055783 138.44835037 7.08984375 155.640625 C2.59842511 172.02869589 -7.40596851 185.26925975 -22 194 C-44.86315014 206.99460544 -75.78159799 207.5209934 -101 201 C-112.89916924 197.67311205 -123.71985947 193.20621871 -135 188 C-135 176.12 -135 164.24 -135 152 C-130.71886302 153.07028424 -128.47840944 154.84080455 -125.1875 157.5625 C-105.14275289 173.46962242 -81.40676377 179.85925823 -56 178 C-44.53106467 176.49714077 -34.40343181 172.07275655 -27.21875 162.8125 C-21.41394973 154.1797201 -21.66861063 142.91434879 -23.5859375 132.95703125 C-25.86775508 126.20578197 -30.1858349 121.94101029 -36 118 C-46.24597639 113.06734537 -57.45095649 110.67887907 -68.4375 108 C-113.68394353 96.94426883 -113.68394353 96.94426883 -126.4375 77.1875 C-127.34168857 75.48395632 -128.19589262 73.75300581 -129 72 C-129.61681641 70.65808594 -129.61681641 70.65808594 -130.24609375 69.2890625 C-135.20272823 56.22001241 -135.25780138 38.85788072 -130.3125 25.7734375 C-122.20084683 8.63274182 -108.44670566 -3.47555663 -90.625 -9.875 C-64.12937409 -17.97922337 -23.92528632 -15.95019088 0 0 Z " fill="#E54D0C" transform="translate(318,423)"></path>
  <path d="M0 0 C10.23 0 20.46 0 31 0 C31.83547363 2.51165771 32.67094727 5.02331543 33.53173828 7.61108398 C36.35607431 16.10099049 39.18222662 24.59029166 42.00917244 33.07932949 C43.71576268 38.20422322 45.42182136 43.32929236 47.12646484 48.45483398 C54.76207639 71.4123028 62.45352077 94.34843719 70.29266357 117.23727417 C74.37619957 129.16060641 78.40963041 141.09928889 82.375 153.0625 C82.93734685 154.7546082 83.49984818 156.44666506 84.0625 158.13867188 C85.37673595 162.09187367 86.68904347 166.04570954 88 170 C91.5465648 161.57840128 94.43476414 152.95381876 97.3034668 144.28491211 C97.82432656 142.71848774 98.3454626 141.15215521 98.86685181 139.58590698 C99.9822096 136.23354717 101.09570567 132.88057704 102.20773888 129.52711296 C103.96507059 124.22795201 105.72704375 118.93034155 107.48970032 113.63294983 C111.2258675 102.40231778 114.95692865 91.16999187 118.6875 79.9375 C122.72574979 67.77869864 126.76488623 55.62019601 130.80984622 43.46362501 C132.56345232 38.19282218 134.31412568 32.92105702 136.06258619 27.64854515 C137.14678865 24.3810764 138.23344576 21.11442802 139.32078934 17.84800339 C139.82616205 16.3281251 140.33049261 14.80789986 140.8337307 13.28731346 C141.5179419 11.22035915 142.20578153 9.15464843 142.89457703 7.08921814 C143.27930018 5.93060744 143.66402334 4.77199675 144.06040478 3.57827663 C145 1 145 1 146 0 C148.14558827 -0.08775605 150.29404421 -0.10695219 152.44140625 -0.09765625 C153.74658203 -0.09443359 155.05175781 -0.09121094 156.39648438 -0.08789062 C157.7851569 -0.07953401 159.17382877 -0.07106905 160.5625 -0.0625 C161.95507656 -0.05748666 163.34765481 -0.05292347 164.74023438 -0.04882812 C168.1601987 -0.03699434 171.58007844 -0.0205088 175 0 C174.34834516 4.94530925 172.92989302 9.45445382 171.25390625 14.12890625 C170.97159653 14.92993271 170.6892868 15.73095917 170.39842224 16.55625916 C169.78233817 18.30367248 169.164176 20.05035419 168.54418945 21.79638672 C166.83162709 26.62188575 165.13651736 31.45350443 163.44140625 36.28515625 C163.08140533 37.31061554 162.72140442 38.33607483 162.35049438 39.39260864 C158.14501372 51.39828801 154.07439425 63.44935465 150 75.5 C144.28781546 92.38273932 138.50582072 109.23761908 132.60333252 126.05474854 C128.75837034 137.01455065 124.96971151 147.99183433 121.2421875 158.9921875 C120.8372406 160.18720886 120.4322937 161.38223022 120.01507568 162.61346436 C118.03055796 168.4743968 116.05076267 174.3368879 114.07617188 180.20117188 C113.35027791 182.35026633 112.62436724 184.49935513 111.8984375 186.6484375 C111.4180452 188.08181961 111.4180452 188.08181961 110.927948 189.54415894 C108.47675454 196.79178108 105.75357052 203.84071665 103 211 C93.1 211 83.2 211 73 211 C68.50053169 202.00106338 68.50053169 202.00106338 66.94799805 197.3581543 C66.59570633 196.31462296 66.24341461 195.27109161 65.88044739 194.19593811 C65.51126694 193.08327072 65.14208649 191.97060333 64.76171875 190.82421875 C64.36438034 189.64327133 63.96704193 188.46232391 63.55766296 187.24559021 C62.70586798 184.71247102 61.85608074 182.17878432 61.00970459 179.64385986 C58.99217438 173.60250777 56.95648195 167.56726659 54.92176819 161.53168488 C54.46535218 160.17758346 54.00914558 158.82341144 53.55314636 157.46916962 C49.57613872 145.65859331 45.50746362 133.88207183 41.375 122.125 C35.4202211 105.16626345 29.61920291 88.15801125 23.86080933 71.13165283 C17.85941765 53.3905875 11.74694699 35.691423 5.50585938 18.03320312 C4.91926776 16.3658865 4.33267904 14.69856885 3.74609375 13.03125 C3.34746376 11.91169922 3.34746376 11.91169922 2.94078064 10.76953125 C1.67229177 7.15734539 0.75512924 3.77564619 0 0 Z " fill="#003F6A" transform="translate(547,163)"></path>
  <path d="M0 0 C0 11.55 0 23.1 0 35 C-4.14544162 33.9636396 -4.96894597 33.34951602 -7.875 30.5 C-25.86280173 14.04810252 -47.87149223 7.0256288 -72 8 C-86.93931026 9.47496716 -101.43928194 17.46823343 -111 29 C-128.85669891 53.11047672 -131.62751581 84.81018188 -127.36669922 113.75146484 C-124.00132879 134.38732482 -114.29997852 152.53098563 -97.58984375 165.29296875 C-83.57291102 174.53188218 -64.98813216 176.47602635 -48.72265625 173.27734375 C-45.06872718 172.34595007 -41.55252797 171.26164545 -38 170 C-36.9790625 169.649375 -35.958125 169.29875 -34.90625 168.9375 C-23.58885762 164.64880394 -13.39258331 157.8917691 -4.76953125 149.43359375 C-3 148 -3 148 0 148 C0 159.22 0 170.44 0 182 C-17.42083686 191.29111299 -17.42083686 191.29111299 -25.5625 193.8125 C-26.46540771 194.09746338 -27.36831543 194.38242676 -28.29858398 194.67602539 C-30.86024801 195.47040901 -33.42886872 196.23696145 -36 197 C-37.1446875 197.36351562 -38.289375 197.72703125 -39.46875 198.1015625 C-61.15239073 203.96052603 -86.67560789 200.95174057 -107 192 C-107.72445312 191.69320312 -108.44890625 191.38640625 -109.1953125 191.0703125 C-130.41232263 181.36374511 -144.1312792 162.14169556 -152.27734375 140.99365234 C-164.40983993 107.52271863 -163.21486902 65.46634001 -148.21875 33.0234375 C-137.39079269 10.95790801 -119.5651031 -5.27379825 -96.25 -13.375 C-63.33456908 -24.00470486 -29.54864657 -15.91080969 0 0 Z " fill="#003E6B" transform="translate(341,177)"></path>
  <path d="M0 0 C0.86753906 0.33902344 1.73507812 0.67804688 2.62890625 1.02734375 C17.63484925 7.62620131 26.09018933 20.61894201 32.0546875 35.2734375 C36.90721152 49.26956051 34.36757714 64.92876843 28.375 78.0625 C25.13375132 84.26349933 20.96662866 89.11206792 16 94 C15.4121875 94.58652344 14.824375 95.17304687 14.21875 95.77734375 C3.87125872 105.36829675 -10.69185906 109.43193884 -24.51953125 109.27734375 C-40.49099198 108.00464598 -53.93354432 101.67180027 -65 90 C-75.30234814 77.76972706 -80.07416872 62.88398421 -79 47 C-77.24613191 31.2151872 -69.05386762 17.14379321 -57 7 C-39.97621969 -5.08831459 -19.38916076 -8.05886929 0 0 Z " fill="#E64E0C" transform="translate(565,472)"></path>
  <path d="M0 0 C27.39 0 54.78 0 83 0 C83 7.26 83 14.52 83 22 C74.09 22 65.18 22 56 22 C56 76.78 56 131.56 56 188 C64.58 188 73.16 188 82 188 C83.62200515 189.62200515 83.1299075 191.42023031 83.1328125 193.65625 C83.13410156 194.59597656 83.13539063 195.53570313 83.13671875 196.50390625 C83.13285156 197.49261719 83.12898438 198.48132813 83.125 199.5 C83.12886719 200.48871094 83.13273437 201.47742188 83.13671875 202.49609375 C83.13542969 203.43582031 83.13414062 204.37554688 83.1328125 205.34375 C83.13112061 206.64602539 83.13112061 206.64602539 83.12939453 207.97460938 C83 210 83 210 82 211 C79.47997549 211.10035816 76.987338 211.13617712 74.46679688 211.12939453 C73.67821793 211.13114685 72.88963898 211.13289917 72.0771637 211.13470459 C69.4576704 211.13912358 66.83824404 211.13618496 64.21875 211.1328125 C62.4065347 211.13348553 60.59431948 211.13445554 58.78210449 211.13571167 C54.97891381 211.13718871 51.17574656 211.1350339 47.37255859 211.13037109 C42.48621505 211.1246738 37.59992643 211.12795278 32.7135849 211.13394356 C28.96994611 211.13754901 25.22632045 211.13641066 21.48268127 211.13381577 C19.68046563 211.13314645 17.87824882 211.13397507 16.07603455 211.13629532 C13.56172509 211.13882159 11.04750583 211.13498162 8.53320312 211.12939453 C7.40483788 211.13243088 7.40483788 211.13243088 6.25367737 211.13552856 C1.1142626 211.1142626 1.1142626 211.1142626 0 210 C-0.09899523 208.45044441 -0.13079524 206.89646327 -0.1328125 205.34375 C-0.13410156 204.40402344 -0.13539063 203.46429687 -0.13671875 202.49609375 C-0.13285156 201.50738281 -0.12898438 200.51867187 -0.125 199.5 C-0.12886719 198.51128906 -0.13273437 197.52257812 -0.13671875 196.50390625 C-0.13542969 195.56417969 -0.13414062 194.62445312 -0.1328125 193.65625 C-0.13168457 192.78806641 -0.13055664 191.91988281 -0.12939453 191.02539062 C0 189 0 189 1 188 C9.58 188 18.16 188 27 188 C27 133.22 27 78.44 27 22 C18.09 22 9.18 22 0 22 C0 14.74 0 7.48 0 0 Z " fill="#E64E0C" transform="translate(345,413)"></path>
  <path d="M0 0 C27.06 0 54.12 0 82 0 C82 7.26 82 14.52 82 22 C73.09 22 64.18 22 55 22 C55 76.78 55 131.56 55 188 C63.91 188 72.82 188 82 188 C82 195.59 82 203.18 82 211 C54.94 211 27.88 211 0 211 C0 203.41 0 195.82 0 188 C8.91 188 17.82 188 27 188 C27 133.22 27 78.44 27 22 C18.09 22 9.18 22 0 22 C0 14.74 0 7.48 0 0 Z " fill="#003F6B" transform="translate(733,163)"></path>
  <path d="M0 0 C4.65328258 2.55583282 8.0410548 6.03233993 10 11 C10.75569145 16.94738983 10.3894961 21.91575586 7 27 C6.3090625 27.51304687 5.618125 28.02609375 4.90625 28.5546875 C1.94540918 32.35281527 2.57080398 36.08401133 2.75 40.75 C2.76804687 41.63816406 2.78609375 42.52632812 2.8046875 43.44140625 C2.85172626 45.62870848 2.91742991 47.81379816 3 50 C3.97839844 50.23074219 4.95679688 50.46148437 5.96484375 50.69921875 C12.98830502 52.42572627 19.12675379 54.07172353 25.16796875 58.2421875 C27.00023845 59.23064603 27.00023845 59.23064603 28.94921875 58.37890625 C33.86854151 55.07124732 39.11641857 51.11904246 40.78125 45.2421875 C41.00928527 43.38162701 41.22555812 41.51958482 41.4296875 39.65625 C42.43832856 34.95846971 45.37562986 31.9973694 49 29 C53.871923 26.35221576 58.72802692 26.69383791 64 28 C69.28294713 30.79099094 73.0860914 34.2582742 75 40 C75.51578753 44.91266479 75.57444169 48.8290227 73.375 53.3125 C68.61376042 58.70021847 66.46068965 61.0126534 59.25 61.6875 C52.51286889 62.53912734 49.26817613 65.71367751 44.66796875 70.4921875 C42.77251365 72.79698736 42.77251365 72.79698736 43.125 75.14453125 C44.05264663 77.21698918 44.05264663 77.21698918 45.8125 79.8125 C49.17084782 85.42204801 52 94.36960019 52 101 C55.02465079 100.99395674 58.03925233 100.9462925 61.0625 100.875 C61.91005859 100.87757813 62.75761719 100.88015625 63.63085938 100.8828125 C70.35033876 100.67526101 73.3407919 98.66664168 78 94 C81.98553462 92.00723269 86.66772536 92.48036059 91 93 C96.25787074 95.06375708 99.56196012 97.86192192 102 103 C102.79015535 109.08633174 102.8827607 114.95199518 100.4375 120.625 C95.6184374 125.32049689 92.12086743 127.22758013 85.4375 127.5 C80.58359549 127.31331137 77.65536786 126.37418572 74 123 C73.34 121.68 72.68 120.36 72 119 C65.07 119 58.14 119 51 119 C50.67 121.97 50.34 124.94 50 128 C48.9140625 131.328125 48.9140625 131.328125 47.625 134.25 C46.99464844 135.71179688 46.99464844 135.71179688 46.3515625 137.203125 C45.04304087 139.91093276 43.59144678 142.44996247 42 145 C43.64087612 147.02696462 45.30733318 149.01703413 47 151 C47.45761719 151.57234375 47.91523438 152.1446875 48.38671875 152.734375 C51.13878523 155.95129347 51.13878523 155.95129347 55.01074219 157.31567383 C57.0094495 157.27172831 59.00558981 157.13816697 61 157 C67.37364611 158.86418734 71.01431238 162.59596409 74.3125 168.25 C75.65928814 173.63715255 74.8522884 178.35855567 72.3125 183.25 C66.04771339 190.70001651 66.04771339 190.70001651 60.93359375 191.44921875 C55.88896566 191.6156513 52.06303127 191.48489146 47.4375 189.375 C42.98864381 185.04021704 41.02035133 181.91778494 40.4375 175.75 C39.36791455 168.17982722 33.73557938 164.42157541 28 160 C25.31117066 161.0725386 22.62676339 162.15340455 19.94921875 163.25390625 C18.87285156 163.68574219 17.79648437 164.11757813 16.6875 164.5625 C15.08455078 165.21412109 15.08455078 165.21412109 13.44921875 165.87890625 C9.56139796 167.14255808 6.06080644 167.60587593 2 168 C2.00604326 171.02465079 2.0537075 174.03925233 2.125 177.0625 C2.12242187 177.91005859 2.11984375 178.75761719 2.1171875 179.63085938 C2.29665169 185.44101237 3.43930336 188.43850354 7.62060547 192.52514648 C10.72600134 195.84544674 10.3332899 200.22322727 10.27734375 204.5 C9.86326021 208.23258406 8.46309966 210.21280828 6 213 C5.21625 213.94875 4.4325 214.8975 3.625 215.875 C-0.52678191 219.11593179 -5.52181688 218.79577364 -10.5703125 218.625 C-15.80187895 217.67163937 -18.8368364 215.18353895 -22 211 C-24.73845298 206.53532748 -24.53098859 202.09266327 -24 197 C-22.81847678 193.90553442 -21.92645612 191.80570777 -19.42651367 189.6315918 C-17.5479866 187.48300435 -17.5782892 186.15828074 -17.48828125 183.33203125 C-17.43510742 181.99301758 -17.43510742 181.99301758 -17.38085938 180.62695312 C-17.35830078 179.69818359 -17.33574219 178.76941406 -17.3125 177.8125 C-17.27833984 176.87212891 -17.24417969 175.93175781 -17.20898438 174.96289062 C-17.12651782 172.64204607 -17.05736597 170.32157852 -17 168 C-17.64469238 167.89776123 -18.28938477 167.79552246 -18.95361328 167.69018555 C-27.54091373 166.27783664 -35.28521342 162.94880071 -43 159 C-52.33007912 167.02043861 -52.33007912 167.02043861 -55.69921875 178.5546875 C-56.29460958 183.39513765 -59.07846508 186.10209418 -62.4375 189.375 C-67.93443698 191.88237476 -73.0746455 192.08980333 -79 191 C-83.57868368 188.42668161 -87.10527617 184.94985268 -89 180 C-89.66071926 174.48376242 -89.73198334 169.5765795 -87.375 164.5 C-83.10331193 160.00348624 -79.96431657 158.02463919 -73.8125 157.4375 C-66.07953924 156.34341352 -61.86317084 150.62509896 -57 145 C-57.39832031 144.17757812 -57.79664063 143.35515625 -58.20703125 142.5078125 C-66 126.08759124 -66 126.08759124 -66 119 C-72.6 119 -79.2 119 -86 119 C-86.66 120.32 -87.32 121.64 -88 123 C-92.46401286 127.12062725 -96.38762666 127.67645975 -102.2421875 127.453125 C-107.62147901 126.5692754 -111.43341277 124.07672302 -114.69140625 119.7578125 C-117.19770074 114.47589039 -116.58999042 108.70547556 -116 103 C-114.08115745 98.54828528 -111.48778821 95.93312197 -107.125 93.6953125 C-102.78744013 92.27603739 -98.47999548 92.31752708 -94 93 C-90.90831615 94.60105057 -88.8737819 95.98257423 -86.62182617 98.60473633 C-84.52803364 100.40603458 -83.28639555 100.41991961 -80.55078125 100.51171875 C-79.27944336 100.56489258 -79.27944336 100.56489258 -77.98242188 100.61914062 C-77.10134766 100.64169922 -76.22027344 100.66425781 -75.3125 100.6875 C-74.41982422 100.72166016 -73.52714844 100.75582031 -72.60742188 100.79101562 C-70.40507329 100.87345648 -68.20312062 100.94261551 -66 101 C-65.93413696 100.14293457 -65.93413696 100.14293457 -65.86694336 99.26855469 C-65.40561349 94.2238417 -64.50400677 89.97414111 -62.5625 85.25 C-62.13066406 84.18265625 -61.69882812 83.1153125 -61.25390625 82.015625 C-60.84011719 81.02046875 -60.42632812 80.0253125 -60 79 C-59.33139309 77.33411074 -58.66400341 75.6677295 -58 74 C-63.91688837 65.95613604 -63.91688837 65.95613604 -72.19140625 60.93359375 C-74.23253435 60.69090643 -76.27880003 60.48739896 -78.328125 60.328125 C-82.64461918 59.79802922 -84.17352175 58.26132106 -87 55 C-89.66593519 50.20131665 -90.58527247 46.46254307 -90 41 C-88.19696376 34.95452555 -85.12409223 31.47040792 -80 28 C-75.40937391 26.4697913 -70.62459862 26.0586235 -65.99609375 27.71875 C-62.05100206 29.83188767 -59.46851262 32.31823969 -57 36 C-56.55859375 38.9453125 -56.55859375 38.9453125 -56.4375 42.125 C-55.43441873 50.66579875 -50.28548277 54.75509047 -44 60 C-40.58562009 58.68771164 -37.36375391 57.19698288 -34.125 55.5 C-28.35934631 52.59575542 -23.53392718 50.8779742 -17 51 C-17.02294167 47.6235264 -17.1004366 44.25038095 -17.1875 40.875 C-17.19330078 39.92367187 -17.19910156 38.97234375 -17.20507812 37.9921875 C-17.40892932 31.46894913 -18.38312159 28.6096982 -23 24 C-24.84989522 18.45031434 -24.96514041 12.96740161 -22.375 7.6875 C-21.59125 6.800625 -20.8075 5.91375 -20 5 C-19.21625 4.05125 -18.4325 3.1025 -17.625 2.125 C-12.68771524 -1.72910494 -5.83156876 -1.06270046 0 0 Z M-18 10 C-19.60656429 13.21312858 -19.47847898 16.51486253 -19 20 C-16.5644933 24.72423256 -16.5644933 24.72423256 -12 27 C-12 36.24 -12 45.48 -12 55 C-14.31 55 -16.62 55 -19 55 C-26.4504744 57.04842727 -33.00920733 60.21638805 -39.09765625 64.9609375 C-41 66 -41 66 -42.89160156 65.75415039 C-46.93569909 64.30762222 -49.66568145 61.01531413 -52.6875 58.0625 C-53.37650391 57.43537109 -54.06550781 56.80824219 -54.77539062 56.16210938 C-58.52734961 52.4986922 -60.38256809 50.0343458 -60.8046875 44.71875 C-60.80251221 43.49768555 -60.80251221 43.49768555 -60.80029297 42.25195312 C-61.14560635 38.35810155 -63.23702464 36.62819608 -66 34 C-69.69725375 32.15137312 -73.96461442 32.52412906 -78 33 C-80.93423195 34.79646854 -82.47205355 35.9441071 -84 39 C-84.51512617 43.09157355 -84.94367269 47.23589546 -82.953125 50.95703125 C-81.18601378 53.09315687 -79.49101659 54.75449171 -77 56 C-75.6471517 56.01127523 -74.29428177 56.02003091 -72.94140625 56.02734375 C-66.45898904 56.69104144 -63.15039795 60.96560434 -58.9375 65.5625 C-58.16728516 66.36880859 -57.39707031 67.17511719 -56.60351562 68.00585938 C-54.71618988 69.98696528 -52.85011783 71.98420948 -51 74 C-52.08390157 76.86802274 -53.08040652 79.11256912 -54.875 81.625 C-59.6293278 89.17599121 -61.01206476 96.10858281 -62 105 C-70.91 105 -79.82 105 -89 105 C-89.66 103.68 -90.32 102.36 -91 101 C-93.50609522 98.19317335 -95.74409137 97.71968523 -99.375 97.5 C-104.4446815 97.6505846 -106.55877551 99.38671429 -110 103 C-111.86233425 106.72466849 -111.57130829 110.94495313 -111 115 C-109.3279253 118.12578143 -107.2143765 120.39281175 -104 122 C-97.89602404 122.50866466 -94.89230834 122.05703618 -90 118 C-89.67 117.34 -89.34 116.68 -89 116 C-79.76 115.67 -70.52 115.34 -61 115 C-60.505 119.95 -60.505 119.95 -60 125 C-59.0344283 128.38053532 -59.0344283 128.38053532 -57.6875 131.3125 C-57.27886719 132.27800781 -56.87023437 133.24351562 -56.44921875 134.23828125 C-54.9221632 137.1483305 -53.07979564 139.46619492 -51 142 C-50.25 144.3125 -50.25 144.3125 -50 146 C-50.59981689 146.26804443 -51.19963379 146.53608887 -51.81762695 146.81225586 C-54.02649616 148.01442038 -55.26517277 149.13355447 -56.91796875 151.00390625 C-57.45099609 151.57947266 -57.98402344 152.15503906 -58.53320312 152.74804688 C-59.62920707 153.95015746 -60.71282005 155.16369247 -61.78320312 156.38867188 C-65.69049912 160.54805148 -68.30617228 161.5699806 -73.98168945 161.82055664 C-76.71303062 162.06339392 -78.0668605 163.03688929 -80 164.9375 C-80.556875 165.46214844 -81.11375 165.98679687 -81.6875 166.52734375 C-83.74157673 168.83206675 -84.00414473 170.04227624 -84.3125 173.1875 C-83.91694878 178.01322486 -82.780498 180.06096117 -80 184 C-76.65957214 186.64930485 -73.13303804 186.3625472 -69 186 C-65.79927192 184.47237978 -63.27127497 182.72298512 -61 180 C-60.49868035 177.86101699 -60.49868035 177.86101699 -60.4375 175.5625 C-60.0316596 168.29426735 -56.03725964 164.64478035 -51.125 159.6875 C-50.49980469 159.02943359 -49.87460937 158.37136719 -49.23046875 157.69335938 C-48.31587891 156.76813477 -48.31587891 156.76813477 -47.3828125 155.82421875 C-46.82996582 155.25791748 -46.27711914 154.69161621 -45.70751953 154.1081543 C-44 153 -44 153 -42.02075195 153.21020508 C-40.03796841 153.98516035 -38.17080226 154.82453465 -36.28515625 155.8125 C-35.25551758 156.34230469 -35.25551758 156.34230469 -34.20507812 156.8828125 C-32.77976305 157.62600322 -31.35527846 158.37078893 -29.93164062 159.1171875 C-23.50899006 162.41579341 -19.4531943 163 -12 163 C-12 172.24 -12 181.48 -12 191 C-13.98 191.99 -13.98 191.99 -16 193 C-18.80682665 195.50609522 -19.28031477 197.74409137 -19.5 201.375 C-19.3494154 206.4446815 -17.61328571 208.55877551 -14 212 C-10.30044901 213.84977549 -6.03799166 213.47056911 -2 213 C1.39488422 210.94892412 2.80323081 209.29515379 5 206 C5.73965025 201.40728797 5.60961194 197.97537911 3.125 194 C1.16362866 191.96208604 1.16362866 191.96208604 -1 191 C-1.33 181.76 -1.66 172.52 -2 163 C0.64 163 3.28 163 6 163 C8.22589346 162.50307096 8.22589346 162.50307096 10.03515625 161.609375 C10.69966797 161.31160156 11.36417969 161.01382813 12.04882812 160.70703125 C12.71333984 160.39121094 13.37785156 160.07539063 14.0625 159.75 C15.06506836 159.29947266 15.06506836 159.29947266 16.08789062 158.83984375 C20.5461674 156.80350742 24.77561512 154.48299346 29 152 C29.1959375 152.53496094 29.391875 153.06992187 29.59375 153.62109375 C31.2630411 156.44497786 33.2828708 158.22524849 35.69677734 160.41577148 C41.63040806 165.83444725 44.95545635 169.31067931 45.57421875 177.609375 C46.22895326 181.28549902 48.11262698 182.91591065 51.0703125 185.0390625 C54.24728349 186.62111688 56.53654308 186.5667475 60 186 C63.87765844 184.65773362 65.55557782 183.65181919 67.875 180.25 C69.20810996 176.39879344 69.63888233 174.04625478 69 170 C67.45236762 167.05129134 65.71396814 164.94012794 63 163 C60.64740332 162.38645579 58.57587039 162.18926202 56.1484375 162.16796875 C50.31139952 161.71161851 46.60524655 157.00716661 42.6875 153.125 C42.02943359 152.49980469 41.37136719 151.87460937 40.69335938 151.23046875 C40.07654297 150.62074219 39.45972656 150.01101563 38.82421875 149.3828125 C37.97476685 148.55354248 37.97476685 148.55354248 37.1081543 147.70751953 C36 146 36 146 36.24414062 143.92114258 C37.16738236 141.57456983 38.4144366 139.6613648 39.8125 137.5625 C44.00645599 130.76121716 47 123.04840012 47 115 C51.58443875 115.02277039 56.1663748 115.10004335 60.75 115.1875 C62.05195312 115.19330078 63.35390625 115.19910156 64.6953125 115.20507812 C65.94570313 115.23408203 67.19609375 115.26308594 68.484375 115.29296875 C69.63647461 115.3086792 70.78857422 115.32438965 71.97558594 115.34057617 C75.87701364 116.19121842 76.79926949 117.77365901 79 121 C82.21265446 122.60632723 85.51521812 122.47931944 89 122 C92.75212276 119.98497111 94.63644095 118.54533858 97 115 C97.70351326 110.17357185 97.73487541 106.2163455 95.1875 102 C91.12065179 98.28173878 88.63043452 97.50960412 83.296875 97.60546875 C79.40315639 98.27428776 77.65452753 100.14127804 75 103 C75 103.66 75 104.32 75 105 C65.76 105 56.52 105 47 105 C47 102.69 47 100.38 47 98 C45.30569749 90.12833368 41.93693886 83.8251476 37.1953125 77.375 C36.80085937 76.59125 36.40640625 75.8075 36 75 C37.75763803 70.41868204 41.21791843 67.22525688 44.5625 63.75 C45.14580078 63.1003125 45.72910156 62.450625 46.33007812 61.78125 C50.77629338 57.18537929 50.77629338 57.18537929 54.35131836 56.64379883 C56.75 56.69140625 56.75 56.69140625 58.95703125 56.93969727 C62.45055871 57.04281644 64.44587654 55.18034929 67 53 C69.8288298 48.7567553 69.65268001 44.98265471 69 40 C66.87652221 36.35975235 64.86202998 34.56740522 61 33 C56.41789703 32.75409108 52.85855895 33.44551401 49 35.9375 C46.19706847 38.82802314 45.9858638 40.2298494 45.94140625 44.09765625 C45.30037911 50.36115625 41.42695889 53.40043748 36.9375 57.4375 C35.44286203 58.82800856 33.95176962 60.22234138 32.46484375 61.62109375 C31.46892212 62.52492798 31.46892212 62.52492798 30.45288086 63.44702148 C28.77227306 64.88897613 28.77227306 64.88897613 29 67 C27.96101562 66.38511719 26.92203125 65.77023438 25.8515625 65.13671875 C12.77183064 57.40334127 12.77183064 57.40334127 -2 55 C-1.97718868 50.43639449 -1.89985829 45.87529047 -1.8125 41.3125 C-1.80379883 39.37213867 -1.80379883 39.37213867 -1.79492188 37.39257812 C-1.76591797 36.14541016 -1.73691406 34.89824219 -1.70703125 33.61328125 C-1.6913208 32.46641846 -1.67561035 31.31955566 -1.65942383 30.13793945 C-0.81453943 26.11746586 0.96330385 24.6669346 4 22 C5.61429923 18.77140153 5.59570657 15.49006347 5 12 C3.26397895 8.97491855 1.16419863 6.58209931 -2 5 C-9.11757934 4.10390188 -13.07342103 4.69445341 -18 10 Z " fill="#07436E" transform="translate(459,163)"></path>
  <path d="M0 0 C0.73188538 -0.00139984 1.46377075 -0.00279968 2.21783447 -0.00424194 C14.09235266 0.01443021 24.98270485 1.11074612 36.125 5.4375 C37.17945313 5.84484375 38.23390625 6.2521875 39.3203125 6.671875 C41.99540703 7.81940859 44.55057976 9.08104123 47.125 10.4375 C48.0221875 10.87707031 48.919375 11.31664062 49.84375 11.76953125 C72.97872801 23.56447088 90.86591949 45.84481185 99 70.3125 C99.75515806 72.67302905 100.46247184 75.0493171 101.125 77.4375 C101.30973877 78.06060059 101.49447754 78.68370117 101.68481445 79.32568359 C103.67550102 86.8591185 103.56683725 94.57398059 103.5625 102.3125 C103.56290283 103.04637939 103.56330566 103.78025879 103.5637207 104.53637695 C103.5261019 116.43299957 102.55238187 127.30228113 98.125 138.4375 C97.84092285 139.16275879 97.5568457 139.88801758 97.26416016 140.63525391 C86.66247341 166.85503528 66.57338012 187.4489318 40.5859375 198.640625 C39.10236791 199.24797943 37.6154069 199.84712267 36.125 200.4375 C35.43825195 200.71142578 34.75150391 200.98535156 34.04394531 201.26757812 C13.43656148 209.0355008 -14.45526218 208.36685195 -34.875 200.4375 C-36.45667969 199.82648438 -36.45667969 199.82648438 -38.0703125 199.203125 C-40.74540703 198.05559141 -43.30057976 196.79395877 -45.875 195.4375 C-46.7721875 194.99792969 -47.669375 194.55835938 -48.59375 194.10546875 C-71.72872801 182.31052912 -89.61591949 160.03018815 -97.75 135.5625 C-98.50515806 133.20197095 -99.21247184 130.8256829 -99.875 128.4375 C-100.05973877 127.81439941 -100.24447754 127.19129883 -100.43481445 126.54931641 C-102.42550102 119.0158815 -102.31683725 111.30101941 -102.3125 103.5625 C-102.31290283 102.82862061 -102.31330566 102.09474121 -102.3137207 101.33862305 C-102.2761019 89.44200043 -101.30238187 78.57271887 -96.875 67.4375 C-96.59092285 66.71224121 -96.3068457 65.98698242 -96.01416016 65.23974609 C-85.96926324 40.39700104 -67.28356507 20.33595487 -43.05078125 8.78125 C-37.12065719 6.27207082 -31.06261435 4.22201574 -24.875 2.4375 C-24.24754883 2.24986084 -23.62009766 2.06222168 -22.97363281 1.86889648 C-15.4458304 -0.11815122 -7.73197771 -0.00140948 0 0 Z M-59.875 29.4375 C-60.71417969 30.11296875 -61.55335938 30.7884375 -62.41796875 31.484375 C-80.91699474 47.20137693 -92.50631315 70.6355818 -94.46728516 94.74291992 C-96.18680118 120.03258208 -88.9159535 143.7536582 -72.875 163.4375 C-71.86179687 164.69626953 -71.86179687 164.69626953 -70.828125 165.98046875 C-56.14942994 183.25739998 -34.44181304 194.75870565 -11.875 197.4375 C1.25977517 198.06207855 14.48673978 198.45254296 27.125 194.4375 C27.75132324 194.24414062 28.37764648 194.05078125 29.02294922 193.8515625 C53.05017005 186.26586745 71.46378481 170.10153905 84.125 148.4375 C84.57617188 147.67308594 85.02734375 146.90867187 85.4921875 146.12109375 C96.03161465 126.77698988 98.74663941 100.89015238 93.16015625 79.6875 C92.81855469 78.615 92.47695313 77.5425 92.125 76.4375 C91.92632324 75.80585938 91.72764648 75.17421875 91.52294922 74.5234375 C83.68190825 50.18390658 67.40861271 30.8387101 45.125 18.4375 C10.7307457 0.88941107 -29.851245 4.97024087 -59.875 29.4375 Z " fill="#E64D0C" transform="translate(541.875,421.5625)"></path>
  <path d="M0 0 C4.47870656 2.15937638 7.18198188 4.92952939 10 9 C11.80190163 14.4057049 11.60991613 18.50062284 9.5 23.6875 C6.86639627 27.71645168 3.45613759 30.23169143 -1 32 C-6.63251044 33.00069982 -11.22073603 32.25858907 -16 29 C-19.97150416 25.06078449 -21.87802763 21.86007863 -22.25 16.1875 C-22.13555996 10.49670882 -19.95468393 6.6880603 -16.0625 2.625 C-11.26083947 -1.25719362 -5.86845826 -0.95495079 0 0 Z " fill="#F5F7F9" transform="translate(457,232)"></path>
  <path d="M0 0 C4.06428258 2.52722387 7.83115529 5.66231057 10 10 C10.55713132 15.95701945 10.52180186 20.95208399 7 26 C2.83229548 30.19047886 -0.82741826 32.13588956 -6.75 32.375 C-11.35169937 32.32125753 -14.08431134 31.44409134 -17.59375 28.47265625 C-21.23131193 24.66332056 -22.18250634 21.13573086 -22.375 16 C-22.22480423 11.65085283 -21.51913451 8.6484017 -19 5 C-13.08804478 -0.3351791 -7.88105784 -1.37773994 0 0 Z " fill="#F7F9FA" transform="translate(480,272)"></path>
  <path d="M0 0 C5.46341463 2.92682927 5.46341463 2.92682927 7 6 C7.42308538 10.59698532 7.53894467 14.70653278 5.75 19 C3.43453089 21.64625042 1.32184735 22.77168091 -2.1484375 23.37109375 C-6.38139331 23.4973398 -9.14342222 23.37350209 -12.5 20.625 C-16.13542732 16.80780131 -16.39236502 14.44157848 -16.359375 9.328125 C-15.75455722 5.40995764 -13.83123243 3.69641184 -11 1 C-7.53303962 -0.73348019 -3.79051063 -0.47699379 0 0 Z " fill="#FAFBFC" transform="translate(435,277)"></path>
  <path d="M0 0 C4.48897351 1.93490237 8.60712786 4.63652728 11 9 C12.92934567 14.08645676 12.57790076 19.2789618 10.375 24.1875 C7.75792293 28.99323582 4.14792809 31.28402397 -1 33 C-6.2687598 33.39764225 -9.56641924 32.92427667 -14 30 C-18.38551116 25.66572144 -20.79432642 22.50921765 -21.3125 16.1875 C-21.23980116 11.77710357 -19.87353778 9.40287368 -17 6 C-11.52159029 0.82905206 -7.52926484 -1.07903477 0 0 Z M-15 10 C-16.74221711 13.48443422 -16.58675154 17.19887045 -16 21 C-14.29748281 24.07469523 -12.18773492 26.40613254 -9 28 C-6.92435324 28.19758231 -6.92435324 28.19758231 -4.625 28.1875 C-3.85414063 28.20167969 -3.08328125 28.21585937 -2.2890625 28.23046875 C1.31732339 27.86736846 3.37789806 26.71097364 5.75 24 C7.56286023 19.64913545 7.83840984 15.64174175 7 11 C4.4773296 7.74708291 2.2297395 5.31216353 -1.953125 4.7265625 C-8.14891906 4.45259882 -10.7143351 5.50005186 -15 10 Z " fill="#185078" transform="translate(435,272)"></path>
  <path d="M0 0 C4.47870656 2.15937638 7.18198188 4.92952939 10 9 C11.80190163 14.4057049 11.60991613 18.50062284 9.5 23.6875 C6.86639627 27.71645168 3.45613759 30.23169143 -1 32 C-6.63251044 33.00069982 -11.22073603 32.25858907 -16 29 C-19.97150416 25.06078449 -21.87802763 21.86007863 -22.25 16.1875 C-22.13555996 10.49670882 -19.95468393 6.6880603 -16.0625 2.625 C-11.26083947 -1.25719362 -5.86845826 -0.95495079 0 0 Z M-15.73828125 7.95703125 C-18.27689617 12.06754396 -17.99598226 16.40210928 -17 21 C-15.31362372 24.16349419 -13.25594917 26.37202541 -10 28 C-6.20584481 28.53118173 -2.53668822 28.85089348 0.890625 26.953125 C3.0405787 25.17889137 4.74635623 23.50728754 6 21 C6.34872312 14.9554659 6.00257544 10.30599596 1.9375 5.625 C-4.36442787 2.13882713 -10.56157369 2.87685903 -15.73828125 7.95703125 Z " fill="#134B74" transform="translate(457,232)"></path>
  <path d="M0 0 C4.06428258 2.52722387 7.83115529 5.66231057 10 10 C10.55713132 15.95701945 10.52180186 20.95208399 7 26 C2.83229548 30.19047886 -0.82741826 32.13588956 -6.75 32.375 C-11.35169937 32.32125753 -14.08431134 31.44409134 -17.59375 28.47265625 C-21.23131193 24.66332056 -22.18250634 21.13573086 -22.375 16 C-22.22480423 11.65085283 -21.51913451 8.6484017 -19 5 C-13.08804478 -0.3351791 -7.88105784 -1.37773994 0 0 Z M-16 8 C-18.41836744 11.95732855 -18.75180743 16.47081868 -18 21 C-15.90637823 24.43952148 -13.88092169 26.78028175 -10 28 C-5.7762056 28.46931049 -3.54672865 28.28387834 0.25 26.3125 C4.21867475 22.97520532 5.74989007 20.71950578 6.5 15.5625 C5.82861386 10.77887378 4.43434812 9.35629476 1 6 C-4.75056042 1.78292236 -10.97175523 3.67337078 -16 8 Z " fill="#114A73" transform="translate(480,272)"></path>
  <path d="M0 0 C2 3 2 3 1.875 4.875 C0.21943934 8.89564731 -2.10103887 11.39372389 -5.6875 13.8125 C-11.21108512 15.79265316 -15.89897976 15.81706343 -21.375 13.6875 C-25.79146919 10.84834123 -25.79146919 10.84834123 -27 9 C-26.6875 6.3125 -26.6875 6.3125 -26 4 C-23 5 -23 5 -20.875 7.5625 C-17.38821768 10.51868501 -15.58931379 10.68417385 -11.15234375 10.42578125 C-7.90811766 9.7840015 -6.20882708 8.40962954 -4 6 C-2.68834743 3.88339573 -2.68834743 3.88339573 -2 2 C-1.34 2 -0.68 2 0 2 C0 1.34 0 0.68 0 0 Z " fill="#104972" transform="translate(465,249)"></path>
  <path d="M0 0 C0.721875 0.103125 1.44375 0.20625 2.1875 0.3125 C1.93731927 3.68993989 0.93030087 4.56385369 -1.5625 7 C-4.57434693 9.14304493 -6.20383078 9.99408801 -9.8125 10.3125 C-8.22343411 5.25638126 -5.63322205 0.62591356 0 0 Z " fill="#144B75" transform="translate(445.8125,232.6875)"></path>
  <path d="M0 0 C0.99 0.99 1.98 1.98 3 3 C3.99 2.67 4.98 2.34 6 2 C6 4.64 6 7.28 6 10 C4.35 9.67 2.7 9.34 1 9 C0.67 6.03 0.34 3.06 0 0 Z " fill="#406B8D" transform="translate(462,242)"></path>
  <path d="M0 0 C0.66 0 1.32 0 2 0 C2 3.3 2 6.6 2 10 C1.01 10 0.02 10 -1 10 C-1.02689216 8.52093108 -1.04634621 7.04172517 -1.0625 5.5625 C-1.07410156 4.73878906 -1.08570313 3.91507813 -1.09765625 3.06640625 C-1 1 -1 1 0 0 Z " fill="#F03A08" transform="translate(638,519)"></path>
  <path d="M0 0 C0.33 0 0.66 0 1 0 C1.08131463 1.43655854 1.13933559 2.8744483 1.1875 4.3125 C1.22230469 5.11300781 1.25710938 5.91351563 1.29296875 6.73828125 C0.93801608 9.47851584 0.10633718 10.29171079 -2 12 C-2.33 10.68 -2.66 9.36 -3 8 C-2.34 8 -1.68 8 -1 8 C-0.67 5.36 -0.34 2.72 0 0 Z " fill="#366589" transform="translate(439,244)"></path>
  <path d="M0 0 C0.8125 1.6875 0.8125 1.6875 1 4 C-1.4375 6.75 -1.4375 6.75 -4 9 C-4 5.00095031 -2.27413033 3.19799578 0 0 Z " fill="#EB3E08" transform="translate(625,571)"></path>
</svg><style>@media (prefers-color-scheme: light) { :root { filter: none; } }
@media (prefers-color-scheme: dark) { :root { filter: none; } }
</style></svg>